<svg width="40" height="40" viewBox="0 0 40 40" fill="none" xmlns="http://www.w3.org/2000/svg">
<path d="M17.8572 20C17.8572 20.5683 18.0829 21.1134 18.4848 21.5152C18.8867 21.9171 19.4317 22.1429 20 22.1429C20.5684 22.1429 21.1134 21.9171 21.5153 21.5152C21.9171 21.1134 22.1429 20.5683 22.1429 20C22.1429 19.4317 21.9171 18.8866 21.5153 18.4848C21.1134 18.0829 20.5684 17.8571 20 17.8571C19.4317 17.8571 18.8867 18.0829 18.4848 18.4848C18.0829 18.8866 17.8572 19.4317 17.8572 20ZM26.7858 20C26.7858 20.5683 27.0115 21.1134 27.4134 21.5152C27.8152 21.9171 28.3603 22.1429 28.9286 22.1429C29.4969 22.1429 30.042 21.9171 30.4438 21.5152C30.8457 21.1134 31.0715 20.5683 31.0715 20C31.0715 19.4317 30.8457 18.8866 30.4438 18.4848C30.042 18.0829 29.4969 17.8571 28.9286 17.8571C28.3603 17.8571 27.8152 18.0829 27.4134 18.4848C27.0115 18.8866 26.7858 19.4317 26.7858 20ZM8.92861 20C8.92861 20.5683 9.15438 21.1134 9.55624 21.5152C9.9581 21.9171 10.5031 22.1429 11.0715 22.1429C11.6398 22.1429 12.1848 21.9171 12.5867 21.5152C12.9886 21.1134 13.2143 20.5683 13.2143 20C13.2143 19.4317 12.9886 18.8866 12.5867 18.4848C12.1848 18.0829 11.6398 17.8571 11.0715 17.8571C10.5031 17.8571 9.9581 18.0829 9.55624 18.4848C9.15438 18.8866 8.92861 19.4317 8.92861 20ZM38.4465 12.25C37.4375 9.85268 35.9911 7.70089 34.1474 5.85268C32.3165 4.01516 30.143 2.55456 27.75 1.55357C25.2947 0.522322 22.6875 0 20 0H19.9108C17.2054 0.0133929 14.5849 0.549107 12.1206 1.60268C9.74806 2.61393 7.59497 4.07713 5.78129 5.91071C3.9554 7.75446 2.52236 9.89732 1.53129 12.2857C0.504504 14.7589 -0.0133532 17.3884 3.96479e-05 20.0938C0.0151881 23.1941 0.748664 26.2487 2.1429 29.0179V35.8036C2.1429 36.3482 2.35925 36.8705 2.74437 37.2557C3.12949 37.6408 3.65183 37.8571 4.19647 37.8571H10.9866C13.7558 39.2514 16.8104 39.9849 19.9108 40H20.0045C22.6786 40 25.2724 39.4821 27.7143 38.4688C30.0952 37.4797 32.2606 36.0361 34.0893 34.2188C35.9331 32.3929 37.384 30.2589 38.3974 27.8795C39.4509 25.4152 39.9866 22.7946 40 20.0893C40.0134 17.3705 39.4866 14.7321 38.4465 12.25ZM31.7009 31.8036C28.5715 34.9018 24.4197 36.6071 20 36.6071H19.9241C17.2322 36.5938 14.5581 35.9241 12.1965 34.6652L11.8215 34.4643H5.53575V28.1786L5.33486 27.8036C4.07593 25.442 3.40629 22.7679 3.3929 20.0759C3.37504 15.625 5.07593 11.4464 8.19647 8.29911C11.3125 5.15179 15.4777 3.41071 19.9286 3.39286H20.0045C22.2366 3.39286 24.4018 3.82589 26.442 4.68304C28.4331 5.51786 30.2188 6.71875 31.7545 8.25446C33.2858 9.78571 34.4911 11.5759 35.3259 13.567C36.192 15.6295 36.625 17.817 36.6161 20.0759C36.5893 24.5223 34.8438 28.6875 31.7009 31.8036Z" fill="#F4F4F4"/>
</svg>
