<svg width="45" height="47" viewBox="0 0 45 47" fill="none" xmlns="http://www.w3.org/2000/svg">
<path d="M44.1536 29.4642L40.7177 26.5267C40.8803 25.53 40.9643 24.5124 40.9643 23.4947C40.9643 22.4771 40.8803 21.4595 40.7177 20.4628L44.1536 17.5253C44.4127 17.3035 44.5982 17.008 44.6853 16.6782C44.7725 16.3483 44.7571 15.9998 44.6414 15.6789L44.5942 15.5425C43.6483 12.8989 42.2319 10.4482 40.4135 8.30892L40.3191 8.19877C40.0985 7.93939 39.8045 7.75293 39.4758 7.66397C39.1471 7.57501 38.7992 7.58773 38.4779 7.70044L34.2133 9.2164C32.6396 7.926 30.8824 6.90837 28.9835 6.19497L28.1599 1.73627C28.0978 1.40077 27.935 1.09213 27.6933 0.851334C27.4516 0.610539 27.1423 0.448995 26.8066 0.388164L26.6649 0.361937C23.932 -0.131144 21.0575 -0.131144 18.3245 0.361937L18.1829 0.388164C17.8472 0.448995 17.5379 0.610539 17.2962 0.851334C17.0544 1.09213 16.8917 1.40077 16.8296 1.73627L16.0008 6.21595C14.117 6.9295 12.3628 7.94659 10.8077 9.22689L6.51159 7.70044C6.19039 7.58683 5.84222 7.57366 5.51334 7.66267C5.18447 7.75168 4.89047 7.93866 4.67041 8.19877L4.57599 8.30892C2.7597 10.4498 1.34357 12.9 0.395299 15.5425L0.348089 15.6789C0.11204 16.3346 0.306125 17.069 0.835924 17.5253L4.31371 20.4943C4.1511 21.4805 4.07242 22.4876 4.07242 23.4895C4.07242 24.4966 4.1511 25.5038 4.31371 26.4847L0.835924 29.4537C0.576772 29.6755 0.391293 29.971 0.304152 30.3008C0.217011 30.6307 0.232336 30.9792 0.348089 31.3001L0.395299 31.4365C1.34474 34.0802 2.75054 36.5194 4.57599 38.6701L4.67041 38.7802C4.89101 39.0396 5.18502 39.2261 5.51369 39.315C5.84237 39.404 6.19029 39.3913 6.51159 39.2786L10.8077 37.7521C12.3709 39.0373 14.1176 40.0549 16.0008 40.7631L16.8296 45.2427C16.8917 45.5782 17.0544 45.8869 17.2962 46.1277C17.5379 46.3685 17.8472 46.53 18.1829 46.5908L18.3245 46.6171C21.0826 47.1128 23.9069 47.1128 26.6649 46.6171L26.8066 46.5908C27.1423 46.53 27.4516 46.3685 27.6933 46.1277C27.935 45.8869 28.0978 45.5782 28.1599 45.2427L28.9835 40.784C30.8816 40.0725 32.6488 39.0516 34.2133 37.7626L38.4779 39.2786C38.7991 39.3922 39.1473 39.4053 39.4761 39.3163C39.805 39.2273 40.099 39.0403 40.3191 38.7802L40.4135 38.6701C42.2389 36.5142 43.6447 34.0802 44.5942 31.4365L44.6414 31.3001C44.8774 30.6549 44.6834 29.9205 44.1536 29.4642ZM36.9934 21.0818C37.1245 21.8739 37.1927 22.6869 37.1927 23.5C37.1927 24.3131 37.1245 25.1261 36.9934 25.9182L36.6472 28.0216L40.5656 31.3735C39.9716 32.7421 39.2218 34.0375 38.331 35.2343L33.4632 33.5085L31.8161 34.8618C30.5624 35.8899 29.1671 36.6978 27.6563 37.2643L25.6578 38.0144L24.7188 43.1026C23.2374 43.2704 21.7416 43.2704 20.2601 43.1026L19.3212 38.0039L17.3384 37.2433C15.8434 36.6768 14.4533 35.869 13.2101 34.8461L11.563 33.4875L6.66371 35.229C5.77197 34.0278 5.02711 32.7321 4.42912 31.3683L8.3895 27.9849L8.04854 25.8867C7.92264 25.1051 7.85445 24.2973 7.85445 23.5C7.85445 22.6974 7.9174 21.8949 8.04854 21.1133L8.3895 19.0151L4.42912 15.6317C5.02186 14.2626 5.77197 12.9722 6.66371 11.771L11.563 13.5125L13.2101 12.1539C14.4533 11.131 15.8434 10.3232 17.3384 9.75669L19.3264 9.00658L20.2654 3.90792C21.7394 3.74006 23.2449 3.74006 24.7241 3.90792L25.663 8.99609L27.6616 9.7462C29.1671 10.3127 30.5676 11.1205 31.8213 12.1487L33.4684 13.502L38.3363 11.7762C39.228 12.9775 39.9729 14.2731 40.5709 15.6369L36.6524 18.9888L36.9934 21.0818ZM22.5 13.7433C17.4013 13.7433 13.2678 17.8768 13.2678 22.9754C13.2678 28.0741 17.4013 32.2076 22.5 32.2076C27.5986 32.2076 31.7321 28.0741 31.7321 22.9754C31.7321 17.8768 27.5986 13.7433 22.5 13.7433ZM26.6545 27.1299C26.1096 27.6764 25.462 28.1097 24.749 28.405C24.036 28.7003 23.2717 28.8516 22.5 28.8504C20.9316 28.8504 19.4576 28.2367 18.3455 27.1299C17.7991 26.585 17.3657 25.9374 17.0705 25.2245C16.7752 24.5115 16.6238 23.7471 16.625 22.9754C16.625 21.407 17.2387 19.933 18.3455 18.821C19.4576 17.7089 20.9316 17.1004 22.5 17.1004C24.0684 17.1004 25.5424 17.7089 26.6545 18.821C27.2009 19.3659 27.6342 20.0134 27.9295 20.7264C28.2248 21.4394 28.3762 22.2037 28.375 22.9754C28.375 24.5439 27.7613 26.0179 26.6545 27.1299Z" fill="#F4F4F4"/>
</svg>
