<svg width="20" height="20" viewBox="0 0 20 20" fill="none" xmlns="http://www.w3.org/2000/svg">
<path fill-rule="evenodd" clip-rule="evenodd" d="M10 0C15.523 0 20 4.477 20 10C20 15.523 15.523 20 10 20C4.477 20 0 15.523 0 10C0 4.477 4.477 0 10 0ZM12.8 11.857C12.0532 12.5912 11.0473 13.0018 10 13C8.95271 13.0018 7.94682 12.5912 7.2 11.857C7.1067 11.7629 6.99563 11.6882 6.87323 11.6374C6.75084 11.5866 6.61957 11.5606 6.48704 11.561C6.35452 11.5614 6.22339 11.5881 6.10128 11.6396C5.97916 11.6911 5.8685 11.7663 5.77573 11.8609C5.68295 11.9556 5.60991 12.0677 5.56085 12.1908C5.51179 12.3139 5.48769 12.4455 5.48995 12.578C5.4922 12.7105 5.52078 12.8413 5.57401 12.9626C5.62723 13.084 5.70405 13.1936 5.8 13.285C6.92064 14.3858 8.42917 15.0018 10 15C11.5708 15.0018 13.0794 14.3858 14.2 13.285C14.385 13.0984 14.4891 12.8465 14.4898 12.5838C14.4905 12.321 14.3878 12.0685 14.2039 11.8809C14.0199 11.6933 13.7695 11.5856 13.5068 11.5811C13.2441 11.5767 12.9902 11.6758 12.8 11.857ZM6.5 6C6.10218 6 5.72064 6.15804 5.43934 6.43934C5.15804 6.72064 5 7.10218 5 7.5C5 7.89782 5.15804 8.27936 5.43934 8.56066C5.72064 8.84196 6.10218 9 6.5 9C6.89782 9 7.27936 8.84196 7.56066 8.56066C7.84196 8.27936 8 7.89782 8 7.5C8 7.10218 7.84196 6.72064 7.56066 6.43934C7.27936 6.15804 6.89782 6 6.5 6ZM13.5 6C13.1022 6 12.7206 6.15804 12.4393 6.43934C12.158 6.72064 12 7.10218 12 7.5C12 7.89782 12.158 8.27936 12.4393 8.56066C12.7206 8.84196 13.1022 9 13.5 9C13.8978 9 14.2794 8.84196 14.5607 8.56066C14.842 8.27936 15 7.89782 15 7.5C15 7.10218 14.842 6.72064 14.5607 6.43934C14.2794 6.15804 13.8978 6 13.5 6Z" fill="#F4F4F4"/>
</svg>
