<svg width="40" height="37" viewBox="0 0 40 37" fill="none" xmlns="http://www.w3.org/2000/svg">
<path d="M39.0322 7.47759C38.4116 6.01432 37.5167 4.68831 36.3977 3.5738C35.2778 2.45596 33.9574 1.56764 32.5084 0.957123C31.0058 0.321545 29.3941 -0.0037802 27.7671 3.31392e-05C25.4844 3.31392e-05 23.2573 0.636522 21.3219 1.83878C20.8589 2.12638 20.419 2.44226 20.0023 2.78644C19.5856 2.44226 19.1457 2.12638 18.6827 1.83878C16.7473 0.636522 14.5202 3.31392e-05 12.2375 3.31392e-05C10.5938 3.31392e-05 9.00103 0.320635 7.49623 0.957123C6.04236 1.57004 4.73202 2.45169 3.60689 3.5738C2.48638 4.68705 1.59128 6.01337 0.972334 7.47759C0.328741 9.00045 0 10.6176 0 12.2819C0 13.8519 0.314851 15.4879 0.939923 17.1522C1.46313 18.5431 2.21322 19.9858 3.17166 21.4426C4.69035 23.7481 6.77855 26.1526 9.37144 28.5902C13.6682 32.6307 17.9233 35.4218 18.1039 35.535L19.2013 36.2516C19.6874 36.5675 20.3125 36.5675 20.7987 36.2516L21.896 35.535C22.0766 35.4171 26.3271 32.6307 30.6285 28.5902C33.2214 26.1526 35.3096 23.7481 36.8283 21.4426C37.7867 19.9858 38.5415 18.5431 39.06 17.1522C39.6851 15.4879 40 13.8519 40 12.2819C40.0046 10.6176 39.6758 9.00045 39.0322 7.47759ZM20.0023 32.5222C20.0023 32.5222 3.51892 21.7679 3.51892 12.2819C3.51892 7.47759 7.42215 3.58323 12.2375 3.58323C15.6222 3.58323 18.5577 5.50684 20.0023 8.31682C21.4469 5.50684 24.3824 3.58323 27.7671 3.58323C32.5824 3.58323 36.4857 7.47759 36.4857 12.2819C36.4857 21.7679 20.0023 32.5222 20.0023 32.5222Z" fill="#DB0031"/>
</svg>
