<svg width="47" height="45" viewBox="0 0 47 45" fill="none" xmlns="http://www.w3.org/2000/svg">
<path d="M46.2918 22.1328L26.0231 1.87458L24.6645 0.515987C24.3549 0.208476 23.9363 0.0358887 23.5 0.0358887C23.0636 0.0358887 22.645 0.208476 22.3355 0.515987L0.708119 22.1328C0.390927 22.4488 0.140245 22.8251 -0.02913 23.2395C-0.198505 23.6539 -0.283141 24.0981 -0.278042 24.5458C-0.25706 26.3922 1.27988 27.8662 3.12631 27.8662H5.35566V44.9509H41.6443V27.8662H43.9208C44.8178 27.8662 45.6624 27.5148 46.2971 26.88C46.6096 26.5685 46.8572 26.1981 47.0256 25.7902C47.194 25.3823 47.2798 24.9451 47.278 24.5038C47.278 23.6121 46.9265 22.7675 46.2918 22.1328ZM26.4375 41.1741H20.5625V30.4732H26.4375V41.1741ZM37.8675 24.0894V41.1741H29.7946V29.2143C29.7946 28.055 28.8557 27.1161 27.6964 27.1161H19.3035C18.1443 27.1161 17.2053 28.055 17.2053 29.2143V41.1741H9.13245V24.0894H4.09674L23.5052 4.69668L24.7169 5.9084L42.9085 24.0894H37.8675Z" fill="#F4F4F4"/>
</svg>
