<svg width="40" height="42" viewBox="0 0 40 42" fill="none" xmlns="http://www.w3.org/2000/svg">
<path d="M38.695 21.7869C39.535 20.6719 40 19.3058 40 17.8845C40 15.6295 38.745 13.495 36.725 12.3047C36.205 11.9983 35.6129 11.8371 35.01 11.8376H23.02L23.32 5.66522C23.39 4.17359 22.865 2.75729 21.845 1.67749C21.3444 1.14527 20.7405 0.72181 20.0706 0.433289C19.4006 0.144768 18.6789 -0.00268701 17.95 3.70655e-05C15.35 3.70655e-05 13.05 1.75785 12.36 4.27403L8.065 19.8935H1.6C0.715 19.8935 0 20.6116 0 21.5006V39.7818C0 40.6708 0.715 41.389 1.6 41.389H31.665C32.125 41.389 32.575 41.2986 32.99 41.1178C35.37 40.0983 36.905 37.7629 36.905 35.1714C36.905 34.5385 36.815 33.9158 36.635 33.3131C37.475 32.1981 37.94 30.8321 37.94 29.4108C37.94 28.7779 37.85 28.1552 37.67 27.5525C38.51 26.4375 38.975 25.0715 38.975 23.6501C38.965 23.0173 38.875 22.3895 38.695 21.7869ZM3.6 37.7729V23.5095H7.65V37.7729H3.6ZM35.42 20.0441L34.325 20.9984L35.02 22.274C35.249 22.6943 35.3677 23.1661 35.365 23.6451C35.365 24.4738 35.005 25.2623 34.385 25.8047L33.29 26.759L33.985 28.0346C34.214 28.4549 34.3327 28.9267 34.33 29.4057C34.33 30.2344 33.97 31.0229 33.35 31.5653L32.255 32.5196L32.95 33.7952C33.179 34.2155 33.2977 34.6873 33.295 35.1663C33.295 36.2913 32.635 37.3058 31.615 37.7679H10.85V23.3488L15.825 5.24334C15.9533 4.77928 16.2287 4.36987 16.6094 4.07714C16.9902 3.78441 17.4555 3.62432 17.935 3.62113C18.315 3.62113 18.69 3.73162 18.99 3.95763C19.485 4.32928 19.75 4.89178 19.72 5.48943L19.24 15.4537H34.96C35.85 16.0012 36.4 16.9253 36.4 17.8845C36.4 18.7132 36.04 19.4967 35.42 20.0441Z" fill="#F4F4F4"/>
</svg>
