<svg width="47" height="44" viewBox="0 0 47 44" fill="none" xmlns="http://www.w3.org/2000/svg">
<path d="M26.6998 17.7266C25.4881 17.7266 24.5491 18.6655 24.5491 19.8248C24.5491 20.984 25.4881 21.923 26.6998 21.923C27.8066 21.923 28.7456 20.984 28.7456 19.8248C28.7456 18.6655 27.8066 17.7266 26.6998 17.7266ZM12.0123 17.7266C10.8006 17.7266 9.86163 18.6655 9.86163 19.8248C9.86163 20.984 10.8006 21.923 12.0123 21.923C13.1191 21.923 14.0581 20.984 14.0581 19.8248C14.0581 18.6655 13.1191 17.7266 12.0123 17.7266Z" fill="#F4F4F4"/>
<path d="M43.5379 13.74C41.111 10.3993 37.6116 7.99226 33.6239 6.92076V6.92601C32.7269 5.92935 31.7145 5.01138 30.5814 4.19308C21.9945 -2.04911 9.94026 -0.144976 3.67185 8.44197C-1.3796 15.4185 -1.16454 24.8028 3.98658 31.4699L4.02854 38.4254C4.02854 38.5933 4.05477 38.7612 4.10723 38.9185C4.17321 39.1287 4.27998 39.3239 4.42144 39.4927C4.56291 39.6616 4.73628 39.801 4.93165 39.9028C5.12702 40.0046 5.34054 40.0669 5.56001 40.0862C5.77948 40.1054 6.00059 40.0812 6.21069 40.0148L12.8515 37.9219C14.6088 38.5461 16.4237 38.9028 18.2282 39.0025L18.202 39.0234C22.8758 42.4278 29.0025 43.4507 34.6205 41.5938L41.2876 43.7654C41.4554 43.8179 41.6285 43.8493 41.8069 43.8493C42.7354 43.8493 43.4855 43.0992 43.4855 42.1708V35.1417C48.1068 28.8681 48.2274 20.1972 43.5379 13.74ZM13.5859 34.1975L12.9564 33.9353L7.76336 35.5614L7.71091 30.106L7.29127 29.6339C2.85354 24.2205 2.55979 16.4204 6.71426 10.6975C11.771 3.76295 21.4647 2.23125 28.3783 7.23549C35.3129 12.2765 36.8499 21.9545 31.8404 28.8471C27.6387 34.6119 20.1166 36.7416 13.5859 34.1975ZM40.0759 33.3058L39.6562 33.8304L39.7087 39.2857L34.5681 37.5547L33.9386 37.817C31.0011 38.908 27.8695 38.9972 24.9687 38.1842L24.9582 38.1789C28.945 36.9563 32.4275 34.4733 34.8828 31.1027C38.8904 25.5791 39.5408 18.6393 37.2118 12.7223L37.2433 12.7433C38.4497 13.6088 39.5566 14.6894 40.4955 15.9955C44.3038 21.2201 44.0887 28.333 40.0759 33.3058Z" fill="#F4F4F4"/>
<path d="M19.3561 17.7266C18.1443 17.7266 17.2054 18.6655 17.2054 19.8248C17.2054 20.984 18.1443 21.923 19.3561 21.923C20.4629 21.923 21.4018 20.984 21.4018 19.8248C21.4018 18.6655 20.4629 17.7266 19.3561 17.7266Z" fill="#F4F4F4"/>
</svg>
