<svg width="37" height="47" viewBox="0 0 37 47" fill="none" xmlns="http://www.w3.org/2000/svg">
<path d="M34.4464 36.9285H33.1875V19.0937C33.1875 11.6923 27.7164 5.57598 20.5982 4.55834V2.51783C20.5982 1.35857 19.6593 0.419617 18.5 0.419617C17.3407 0.419617 16.4018 1.35857 16.4018 2.51783V4.55834C9.2836 5.57598 3.8125 11.6923 3.8125 19.0937V36.9285H2.55357C1.62511 36.9285 0.875 37.6787 0.875 38.6071V40.2857C0.875 40.5165 1.06384 40.7053 1.29464 40.7053H12.625C12.625 43.9471 15.2583 46.5803 18.5 46.5803C21.7417 46.5803 24.375 43.9471 24.375 40.7053H35.7054C35.9362 40.7053 36.125 40.5165 36.125 40.2857V38.6071C36.125 37.6787 35.3749 36.9285 34.4464 36.9285ZM18.5 43.2232C17.1099 43.2232 15.9821 42.0954 15.9821 40.7053H21.0179C21.0179 42.0954 19.8901 43.2232 18.5 43.2232ZM7.58929 36.9285V19.0937C7.58929 16.1772 8.72232 13.439 10.7838 11.3775C12.8453 9.31605 15.5835 8.18301 18.5 8.18301C21.4165 8.18301 24.1547 9.31605 26.2162 11.3775C28.2777 13.439 29.4107 16.1772 29.4107 19.0937V36.9285H7.58929Z" fill="#F4F4F4"/>
</svg>
