<svg width="25" height="24" viewBox="0 0 25 24" fill="none" xmlns="http://www.w3.org/2000/svg">
<path d="M24.9249 21.9198L16.8093 14.253C18.0687 12.715 18.7499 10.8344 18.7499 8.85649C18.7499 6.48885 17.7718 4.26883 16.0031 2.59495C14.2343 0.921075 11.8781 0 9.37496 0C6.87185 0 4.5156 0.924027 2.74686 2.59495C0.974996 4.26587 0 6.48885 0 8.85649C0 11.2212 0.978121 13.4471 2.74686 15.118C4.5156 16.7919 6.86872 17.713 9.37496 17.713C11.4687 17.713 13.4562 17.0694 15.0843 15.8826L23.1999 23.5464C23.2237 23.5689 23.252 23.5868 23.2831 23.599C23.3141 23.6111 23.3475 23.6174 23.3811 23.6174C23.4148 23.6174 23.4481 23.6111 23.4792 23.599C23.5103 23.5868 23.5386 23.5689 23.5624 23.5464L24.9249 22.2623C24.9487 22.2398 24.9676 22.2131 24.9805 22.1837C24.9934 22.1543 25 22.1228 25 22.091C25 22.0592 24.9934 22.0277 24.9805 21.9984C24.9676 21.969 24.9487 21.9423 24.9249 21.9198ZM14.3249 13.5327C12.9999 14.7815 11.2437 15.4693 9.37496 15.4693C7.50622 15.4693 5.74998 14.7815 4.42498 13.5327C3.10311 12.281 2.37499 10.6219 2.37499 8.85649C2.37499 7.09109 3.10311 5.42903 4.42498 4.18026C5.74998 2.9315 7.50622 2.24364 9.37496 2.24364C11.2437 2.24364 13.0031 2.92855 14.3249 4.18026C15.6468 5.43198 16.3749 7.09109 16.3749 8.85649C16.3749 10.6219 15.6468 12.2839 14.3249 13.5327Z" fill="#F4F4F4"/>
</svg>
